<svg xmlns="http://www.w3.org/2000/svg" xmlns:xlink="http://www.w3.org/1999/xlink" width="280.466" height="199.458" viewBox="0 0 74.207 52.773"><defs><pattern patternTransform="translate(-23.69 100.562) scale(.26458)" id="d" xlink:href="#a"/><pattern patternUnits="userSpaceOnUse" width="280.466" height="199.458" patternTransform="translate(2356.898 2726.222)" id="a"><path fill="none" stroke-width="4.756" stroke-linecap="square" paint-order="fill markers stroke" d="M2356.898 2726.222h280.466v199.458h-280.466z" transform="translate(-2356.898 -2726.222)"/><path fill="url(#b)" stroke-width=".468" d="M2391.398 2750.758h211.466v150.387h-211.466z" transform="translate(-2356.898 -2726.222)"/></pattern><pattern xlink:href="#c" id="b" patternTransform="translate(2391.398 2750.758) scale(.46776)"/><pattern patternUnits="userSpaceOnUse" width="452.086" height="321.507" patternTransform="translate(2391.398 2579.638)" id="c"><g transform="translate(-2390.536 -2579.638)" stroke-linecap="square" paint-order="fill markers stroke"><circle r="160.754" cy="2740.391" cx="2625.861" fill="#c4c2c2" stroke-width="3.415"/><circle r="108.93" cy="2740.391" cx="2625.861" fill="#fff" stroke-width="5.059"/><circle r="102.771" cy="2740.391" cx="2625.861" fill="#c4c2c2" stroke-width="3.052"/></g><path d="M2396.042 2633.208c-.753.135-1.522 1.971-2.115 5.11-1.357 7.175-1.797 21.152-2.234 35.138-.437 13.986-.87 27.97 2.52 36.556 3.392 8.586 10.615 11.772 13.574 19.614 2.958 7.842 1.778 70.873-.78 94.984-2.558 24.112-4.225 27.986-3.474 40.918.75 12.931 7.39 18.072 10.746 18.072 3.356 0 9.7-5.14 10.45-18.072.75-12.932-.917-16.806-3.474-40.918-2.558-24.111-3.739-87.142-.78-94.984 2.958-7.842 10.186-11.028 13.577-19.614 3.391-8.585 2.954-22.57 2.517-36.556-.437-13.986-.877-27.963-2.234-35.138-1.357-7.175-3.63-7.542-4.532 3.643-.901 11.186-.421 33.88-.182 45.242.24 11.361-6.37 11.36-6.21.113.159-11.247.479-33.681-.684-44.908-1.161-11.227-3.8-11.22-4.664.032-.864 11.253.055 29.126-.246 40.356-.302 11.229-2.675 11.23-3.364 11.23-.69 0-3.49 0-3.899-11.23-.408-11.23.51-29.103-.355-40.356-.865-11.252-3.502-11.259-4.664-.032s-.845 33.66-.684 44.908c.159 11.247-6.445 11.248-6.205-.114.239-11.361.714-34.055-.187-45.24-.507-6.293-1.448-8.929-2.416-8.754z" fill="#c4c2c2" stroke-width="2.334" transform="translate(-2391.398 -2579.638)"/><path d="M2821.8 2662.568c-4.45 11.24-7.608 41.867-2.846 61.284 6.548 26.699 8.551 34.498 10.813 42.941-.098 9.702-.232 32.31-2.842 56.922-2.611 24.611-5.223 26.13-4.547 40.863.676 14.734 7.107 18.989 10.532 18.989s10.524-2.902 10.531-18.989c.01-16.087.091-222.249 0-229.574-.092-7.453-14.663 9.943-21.64 27.564z" fill="#c4c2c2" stroke-width="2.383" transform="translate(-2391.398 -2579.638)"/></pattern></defs><path fill="url(#d)" d="M-23.691 100.562h74.207v52.773h-74.207z" transform="translate(23.69 -100.562)"/></svg>