<svg width="127.884" height="34.35mm" viewBox="0 0 33.836 34.35" xmlns="http://www.w3.org/2000/svg"><path d="M.571 17.59a16.347 16.192 0 0 0 16.347 16.192A16.347 16.192 0 0 0 33.265 17.59z" fill="none" stroke="#fff" stroke-linecap="square" stroke-width="1.142" paint-order="fill markers stroke"/><path d="M2.518.61s2.845-.069 4.398.41c2.265.7 3.614 2.817 1.617 4.383-.981.77-5.307 1.294-5.307 1.294L13.94 22.702" fill="none" stroke="#fff" stroke-width="1.2"/><g fill="#fff"><path paint-order="fill markers stroke" d="M3.504.491L2.51.151.151 15.786l.993.34z"/><text x="33.061" y="169.948" font-size="5" letter-spacing="0" stroke-width="0" word-spacing="0" style="line-height:1" transform="translate(-23.435 -156.1)"><tspan x="33.061" y="169.948" font-size="150%" font-family="sans-serif">ecipes</tspan></text><path d="M14.227 22.37l-.682.412a75.171 75.171 0 0 1 1.832 5.1c.235.74 1.286 4.34 3.92 2.903l.134-.089c2.33-1.906-.615-4.231-1.213-4.728a74.875 74.875 0 0 1-3.999-3.587l.008-.01zm-.178.192c2.816 2.712 2.975 2.688 4.037 3.597 2.651 2.268 1.884 3.667 1.377 4.199.348-1.808-4.298-6.654-5.42-7.792.002 0 .004-.004.006-.004zm-.29.2c.714 1.645 3.444 7.569 5.206 7.926-.69.267-2.262.429-3.359-2.86-.438-1.311-.442-1.55-1.847-5.065zm.892.727c3.967 4.353 4.585 6.094 4.558 6.77zm-.222.208l4.526 6.72c-.625-.248-2.008-1.478-4.526-6.72z"/></g></svg>