<svg width="33.836mm" height="34.35mm" version="1.1" viewBox="0 0 33.836 34.35" xmlns="http://www.w3.org/2000/svg">
 <g transform="translate(-23.435 -156.1)">
  <path d="m24.006 173.69a16.347 16.192 0 0 0 16.347 16.192 16.347 16.192 0 0 0 16.347-16.192z" fill="none" stroke="#ffffff" stroke-linecap="square" stroke-width="1.1418" style="paint-order:fill markers stroke"/>
  <path d="m25.953 156.71s2.8451-0.0688 4.3977 0.41035c2.2656 0.69914 3.6141 2.8164 1.6176 4.3829-0.98148 0.77008-5.3069 1.2938-5.3069 1.2938l10.714 16.005" fill="none" stroke="#ffffff" stroke-width="1.2"/>
  <g>
   <rect transform="matrix(-.94593 -.32438 -.14922 .9888 0 0)" x="-50.83" y="141.69" width="1.0489" height="15.812" fill="#ffffff" style="paint-order:fill markers stroke"/>
   <text x="33.060764" y="169.94798" fill="#ffffff" font-size="5px" letter-spacing="0px" stroke-width="0" word-spacing="0px" style="line-height:1" xml:space="preserve"><tspan x="33.060764" y="169.94798" fill="white" font-size="150%" font-family="sans-serif" stroke-width="0">ecipes</tspan></text>
   <path d="m37.662 178.47-0.68188 0.41205c0.2552 0.63231 1.0631 2.6776 1.8319 5.0993 0.23503 0.74041 1.2862 4.3401 3.9209 2.9034l0.13306-0.0888c2.3294-1.9055-0.61477-4.231-1.2125-4.7275-1.8883-1.5681-3.453-3.0598-3.9991-3.587 0.0029-4e-3 0.0048-7e-3 0.0076-0.0114zm-0.17823 0.19167c2.8163 2.7127 2.9755 2.6885 4.0375 3.597 2.6509 2.2683 1.8835 3.6671 1.3763 4.1991 0.34859-1.8078-4.2978-6.6535-5.4192-7.7916 0.0018-1e-3 0.0035-4e-3 0.0055-4e-3zm-0.29 0.20093c0.71467 1.6446 3.4441 7.5682 5.2067 7.9254-0.6907 0.26672-2.2621 0.42858-3.3594-2.8598-0.43766-1.3116-0.44168-1.5495-1.8474-5.0657zm0.89234 0.72608c3.9669 4.3538 4.5848 6.0942 4.5581 6.7694zm-0.22172 0.20793 4.5259 6.7207c-0.62494-0.24866-2.0081-1.4788-4.5259-6.7207z" stroke-width=".12668" fill="#ffffff"/>
  </g>
 </g>
</svg>
